<?xml version="1.0" encoding="UTF-8"?>
<svg width="641px" height="641px" viewBox="0 0 641 641" version="1.1" xmlns="http://www.w3.org/2000/svg" xmlns:xlink="http://www.w3.org/1999/xlink">
    <title>ouroboros svg</title>
    <g id="ouroboros-svg" stroke="none" stroke-width="1" fill="none" fill-rule="evenodd">
        <g id="vector" transform="translate(49, 28)">
            <path d="M455.410547,71.8975907 C455.448021,72.1407885 455.48626,72.3832216 455.523734,72.6264194 C455.812818,73.6259777 456.101902,74.625536 456.391751,75.6250944 L456.745841,77.8108156 C457.604681,82.9753277 457.719397,82.8154902 457.782109,83.2544699 L457.797404,83.9894167 C457.924356,88.220141 457.935063,88.1184262 457.883823,92.4386289 L457.857821,93.1858122 C457.466257,94.975381 454.470641,108.661759 449.466732,114.490094 C445.39661,118.808767 445.443261,118.601514 441.020579,122.637221 C440.596129,123.063199 440.17168,123.489178 439.747231,123.915156 C438.10144,126.135292 438.544244,148.748101 418.933934,158.819396 C406.631031,165.137186 407.239025,155.349621 407.300972,154.354652 C407.446279,152.009858 409.19302,123.897567 399.860495,125.952512 C398.789048,126.188062 398.893057,126.156706 397.723719,126.404493 L396.792226,126.797586 C393.56106,127.17003 393.844026,127.627365 390.717634,128.482381 C386.433376,130.264302 390.96695,139.549411 381.414935,158.13416 C380.933128,159.071007 374.957957,162.19434 389.724959,173.779121 C400.403484,182.15568 418.835278,177.908131 433.201539,197.480966 C442.671723,210.382687 447.557858,224.2702 461.719925,231.841453 C464.33086,233.237164 463.699922,233.802331 463.237234,235.42365 C463.129401,235.603371 462.416633,236.796417 461.643447,237.496949 C454.496644,242.178125 450.04643,241.694023 448.080198,242.457267 C446.800733,242.454208 445.522032,242.451149 444.242567,242.44809 L443.480088,242.373907 C441.568156,242.000697 436.29734,240.080352 435.92872,240.259309 C434.704318,240.855832 435.051525,241.121208 433.458503,244.575688 C431.675817,248.144119 431.459386,247.868036 429.59487,251.413524 C427.816773,253.19468 428.05997,253.253567 426.602313,255.274098 C426.469242,255.495117 425.744238,256.703459 424.216221,257.446053 C415.188841,264.948476 410.371535,264.426136 410.939762,260.717752 C411.679297,255.896623 418.033796,233.840569 402.854582,212.591351 C402.169345,211.591793 402.248881,211.698097 401.509346,210.877495 C400.193936,209.376246 399.429928,209.602619 399.02001,211.6698 C398.864761,212.337447 396.782284,215.086041 396.568147,215.369007 C395.053132,217.359711 395.045484,217.226641 393.665834,219.289998 C388.818703,224.131011 388.852353,224.078242 387.573652,225.402064 C387.305217,225.640673 387.036781,225.879282 386.767581,226.118656 C385.234211,227.341528 385.133261,227.053209 383.687076,228.356382 C382.907772,229.052326 382.234772,229.648084 382.107819,229.759741 L381.378226,229.842336 C377.803677,231.810862 372.03117,234.741472 365.58031,235.749443 C364.707704,236.159361 359.878927,237.079383 359.378766,237.17498 L355.544194,237.239985 C354.02306,237.277459 352.501927,237.314933 350.980793,237.353172 L348.632175,237.161979 C346.421217,236.329141 346.470162,236.534865 344.061127,236.230485 L343.304002,236.175421 C340.257911,235.512363 337.00839,234.638228 336.463872,234.491391 C336.037893,234.382793 333.424664,233.715147 331.202998,232.889957 C331.098989,232.854012 331.046985,232.721707 330.942211,232.686527 C330.784668,232.632993 330.942211,232.686527 328.941565,232.086945 C307.277075,225.388298 298.29711,211.138283 263.833379,193.181412 C262.839939,192.866326 261.847264,192.55124 260.854589,192.236153 C258.450142,190.435877 256.75464,190.414464 255.455291,190.109319 C253.955571,189.227536 254.074876,189.280305 252.313604,188.711314 L250.065936,187.876182 C249.759262,187.752289 247.815209,186.965337 246.239012,186.303044 C236.732118,183.243187 229.279405,179.478974 227.860751,178.762382 C227.346059,178.516125 226.831367,178.270633 226.31591,178.024376 L225.594729,177.913484 C223.461777,175.440973 221.377771,175.158007 219.389361,174.345818 L218.665121,174.649433 C217.664798,174.606606 216.664475,174.563778 215.664152,174.520951 C214.533052,174.856686 214.591175,174.880394 199.415784,180.89151 C194.396579,183.622515 194.44476,183.459618 189.50815,186.386404 C187.966368,187.708697 187.741524,187.188651 186.439881,188.643249 C185.928247,188.898684 185.416614,189.153353 184.905746,189.408787 L184.355109,189.815646 C183.500093,190.428994 182.645842,191.043107 181.790825,191.65722 C181.026817,192.17956 180.262044,192.7019 179.498036,193.22424 C178.810505,194.062431 176.711203,195.393136 176.451945,195.557562 C176.23475,195.846646 176.018319,196.134966 175.801123,196.423285 C175.538806,196.668777 175.275724,196.915034 175.012642,197.160526 C172.030792,199.932064 171.75165,199.393664 168.911283,202.539175 C167.914784,203.812522 168.044031,203.836995 167.950728,203.935651 C167.241019,204.246148 164.261463,205.550851 161.262024,210.947854 C161.013472,211.208642 160.764156,211.468665 160.515605,211.729452 C156.844695,215.178579 157.312736,215.402657 154.094571,219.152339 C153.805487,219.592848 150.705097,224.319145 150.420601,224.620466 C143.118549,236.423973 141.831436,240.257015 140.346247,243.708436 C138.911532,246.355315 139.102726,246.395083 136.087991,254.573566 C135.606184,255.45076 135.627597,255.373518 135.606184,255.45076 C134.647158,258.924359 134.729754,258.889945 134.62345,259.179794 C134.60739,259.207325 134.618862,259.179029 134.192883,260.574739 C133.207855,263.352395 133.24227,263.262917 132.527207,266.160642 C132.273303,267.174731 132.019398,268.18882 131.764729,269.202144 C131.701253,269.934796 131.637776,270.667449 131.5743,271.400101 C131.329573,272.327006 131.40758,272.265824 130.923478,272.987005 C130.873003,273.7296 130.823293,274.47143 130.772818,275.21326 C130.107466,277.247556 130.072286,280.149105 130.066933,280.581966 C128.905242,283.170723 129.342693,283.136308 129.274628,285.91014 L129.299865,287.449628 L129.25092,288.213636 C127.982926,291.177131 128.606216,291.122068 128.663574,295.098123 C128.66128,299.938371 128.65975,304.777855 128.657456,309.618103 L128.508325,311.174416 C128.604687,314.36046 128.71099,314.235802 129.179796,317.269657 L129.253214,318.029841 L129.266215,319.565505 L129.25092,320.34175 C129.48494,321.611273 129.718961,322.880796 129.952981,324.15032 L130.04093,324.903621 L130.054696,325.674512 C130.371312,327.724104 130.255832,327.648391 131.090964,329.548852 C130.856178,331.596914 131.023664,331.423311 131.421346,333.341362 C131.669132,334.363098 131.916919,335.384835 132.16547,336.406572 L132.46832,339.369302 C133.880091,344.963617 134.282361,344.709712 135.779022,350.263494 C136.751814,352.086713 136.40843,352.117304 137.259623,354.092712 C137.378927,354.979084 137.245857,354.880429 137.595358,355.501424 C137.75596,355.792038 137.917328,356.082652 138.07793,356.37403 C138.419019,357.980054 138.622448,357.794979 139.263328,359.264107 C185.893833,466.181668 308.434941,474.332619 375.118559,411.774187 C425.962963,364.075294 393.66048,337.803812 451.341955,298.472301 C494.421619,269.096605 486.869485,248.561685 471.682623,211.005977 C459.897471,181.862772 504.539565,183.562098 528.04104,231.001732 C528.838698,232.844835 535.248261,247.648546 536.662326,254.588861 C537.575465,258.109876 537.429393,258.098404 537.56017,258.38137 C537.674886,259.371752 537.789601,260.362133 537.904317,261.352514 C538.733331,265.414988 539.103482,266.358718 539.267143,266.774754 C539.30997,269.609768 538.886286,269.58606 540.027327,272.132754 L540.050271,272.894468 C540.002855,277.492283 539.991383,290.511779 539.989853,292.043619 C540.102275,292.773213 540.214697,293.502041 540.327118,294.231635 C540.217756,295.289316 540.108393,296.346997 539.999795,297.405443 C539.717594,298.671142 539.436158,299.936841 539.154721,301.202541 L539.22661,302.761148 C538.939055,303.772178 538.650736,304.783973 538.363181,305.795767 C538.275232,306.545245 538.187283,307.294723 538.09857,308.043435 C536.892523,313.627808 536.129279,316.515591 535.936557,317.246714 C530.825578,333.556263 515.577534,386.519088 515.358809,387.626479 C514.434199,390.670276 514.26136,390.563972 514.193295,390.827819 C511.453113,399.951561 511.304747,399.80243 508.914067,408.921584 C508.664751,409.431687 508.41467,409.941026 508.165354,410.45113 C507.946629,410.970411 507.727904,411.490456 507.509179,412.009737 C506.52874,413.949966 506.742876,413.913257 505.902391,415.817542 C505.412936,417.080947 499.482122,431.021229 499.329167,431.230012 C499.164741,431.526744 498.99955,431.822711 498.834359,432.118679 C497.345346,434.760969 496.986667,436.129913 496.889541,436.500828 C496.651697,437.021638 496.414617,437.543213 496.177537,438.064789 C495.888453,438.556538 495.599369,439.048287 495.310285,439.540036 C494.694643,440.265805 494.761178,440.180151 494.490448,441.05811 C494.274017,441.582744 494.057587,442.108144 493.841156,442.632778 C493.606371,442.896625 493.37235,443.160471 493.137565,443.424318 C477.26623,469.582614 477.454365,469.642266 476.195548,470.85902 C475.838399,471.610792 475.6495,471.334709 470.120191,479.311291 C468.735188,480.687118 468.955442,480.651174 467.793752,482.319144 C467.545966,482.581461 467.298179,482.843013 467.049628,483.104565 C465.62562,484.630288 465.848169,484.592049 464.809608,486.206485 C464.538878,486.451977 464.267384,486.698234 463.996654,486.943726 C461.389543,489.683908 460.975801,489.291579 460.350981,491.677671 C459.582384,492.513568 459.651214,492.447032 458.796962,493.183509 C457.998539,493.910808 457.199351,494.638107 456.400928,495.364641 C455.416666,496.679286 454.432403,497.993931 453.44814,499.308576 C452.67266,500.059583 447.11429,505.637073 446.564418,506.188474 C445.137352,507.085553 445.172531,507.022841 444.287689,508.50803 C443.306485,509.089258 443.67587,509.398226 442.754319,510.031458 C439.702875,512.735696 439.545331,512.308187 436.641488,515.390223 C435.475209,516.285007 435.628164,516.223061 434.373936,516.961831 C433.305548,517.930034 432.237161,518.897472 431.169537,519.865674 L430.509538,520.731397 C430.256398,520.988361 430.003259,521.245325 429.749354,521.502289 C428.876748,522.127108 427.55675,522.832994 427.360203,522.938532 L426.665024,523.766017 C426.398883,524.00692 426.131978,524.248588 425.865837,524.489492 C425.039882,525.16861 423.700764,525.852317 423.502688,525.953267 C423.264844,526.222468 423.026234,526.490903 422.78839,526.759338 C422.000674,527.501168 420.690618,528.196347 420.495601,528.299591 L419.758359,529.089602 C419.482276,529.31521 419.205428,529.540053 418.929345,529.764896 C415.286732,531.975855 415.802189,532.502019 412.116747,534.45219 C411.860548,534.7038 411.603585,534.955411 411.347386,535.207021 C410.579554,535.913671 407.798074,537.272673 407.477634,537.429451 C406.882641,537.720065 406.975943,537.771305 400.561792,541.979851 C395.443931,545.336439 379.012783,553.576104 377.52377,554.756148 C376.282543,554.977168 376.485973,555.042174 375.291398,555.605047 C370.235483,557.940663 370.298959,557.807593 365.342466,560.152387 C364.111946,560.472827 364.206778,560.39482 363.068031,560.996696 C338.000301,570.414111 300.926383,578.849116 265.284919,578.849116 C229.643455,578.849116 219.371771,574.977512 210.86826,573.01281 C209.856465,572.764259 208.844671,572.516472 207.833641,572.267921 C206.802727,572.01784 205.772577,571.766995 204.742428,571.516914 L202.601829,571.088641 C201.574738,570.863798 200.547648,570.639719 199.519793,570.414876 C196.521883,569.529269 196.646541,569.557565 196.509647,569.537681 C194.166382,568.887624 192.212387,568.336988 191.839178,568.232214 C191.536328,568.060905 191.233478,567.89036 190.930628,567.719816 C188.151443,567.090408 186.725141,566.359285 186.384052,566.184152 C185.613161,565.933306 184.843035,565.68246 184.072908,565.43238 C175.59387,562.373288 175.220661,562.382465 174.410766,562.403114 C174.154567,562.207332 173.898368,562.01155 173.642934,561.815768 C172.905693,561.519036 166.757682,559.04576 164.50925,557.916191 C160.710622,556.138858 160.815396,556.092972 160.48119,555.96449 C149.269618,550.595783 149.354508,550.766328 148.417661,550.254695 C148.127812,550.06962 147.838728,549.88378 147.548879,549.698705 C147.048717,549.431034 146.548556,549.163363 146.049159,548.894928 C145.549762,548.615021 145.05113,548.335114 144.552498,548.055207 C144.050042,547.790596 143.547586,547.525984 143.044366,547.262138 C124.793058,538.321941 96.1806054,516.747695 84.8267854,504.612277 C84.5453489,504.385904 84.2639124,504.159531 83.982476,503.933158 C83.6161497,503.557655 83.635269,503.644839 82.597472,503.093438 C82.2930924,502.618513 81.9894775,502.142825 81.6850979,501.667136 L81.2522363,501.307693 C80.7352498,500.824356 80.2182632,500.340255 79.7012767,499.856918 C75.7726377,495.787561 75.8980605,495.848743 75.5569717,495.510713 C-42.900249,365.822801 -8.45181362,188.752612 85.2986503,102.834953 C136.907827,55.5383313 170.904282,42.8102141 217.931704,29.9100231 C223.804395,28.2994111 242.901542,-13.2927689 305.099001,4.35360345 C344.518461,15.5384087 344.968148,0.506030448 369.321579,2.73610854 C399.25403,5.477055 404.591381,28.9785295 407.918908,37.9783783 C409.888199,43.3042575 440.772027,38.8869286 455.410547,71.8975907 Z" id="Path" fill-opacity="0.98" fill="#012E1C"></path>
            <path d="M311.709699,20.8941141 C315.737759,24.2025221 315.73317,24.0113288 319.124174,27.9567928 C321.841412,31.5825816 324.558651,35.2091352 327.275889,38.8356888 C330.386221,41.8519536 330.536881,41.9934366 333.317596,41.4198568 C336.270384,40.8103327 338.647299,43.7646509 340.989799,42.605255 C343.382773,41.4206216 342.314385,40.2902871 344.850373,39.1125367 C345.238877,38.9320502 343.111279,42.9501676 349.412244,41.9154297 C357.460715,40.593902 357.32688,43.3929712 357.875987,42.9876415 C363.000731,39.2134867 365.136742,46.486478 368.533863,45.6796425 C371.011728,45.0907673 370.810593,47.7888864 373.068967,46.7732679 C376.1923,45.3699094 385.22121,49.6641098 386.837176,49.121121 C392.350424,47.2673112 391.987922,50.2407487 397.626593,51.597456 C402.755926,52.8317996 402.40413,50.4564147 403.707303,50.6208409 C405.865493,50.8923353 405.685006,49.5386871 407.648944,50.1742134 C438.382112,60.1216159 435.745939,67.0642253 438.265101,65.9476567 C438.733142,65.7396385 438.661254,64.8846222 439.13006,64.676604 C445.425671,72.5269989 445.196239,72.7143683 447.764347,82.5348185 C447.827823,85.0998672 448.267568,103.003203 437.116412,112.790768 C433.643578,115.838389 433.051644,111.774385 419.005823,112.000758 C394.55603,112.393851 335.301417,148.832991 264.354955,108.82695 C262.189117,107.605607 244.939662,97.8792241 233.414533,111.758325 C225.833338,120.888185 238.894896,110.479624 250.046052,114.472504 C255.848384,116.550392 268.708807,154.015857 313.949719,189.154118 C357.898165,223.289761 377.428173,199.060987 390.81476,204.650713 C393.876911,205.930179 383.03243,217.101218 377.601012,219.945409 C346.066362,236.459152 318.369343,215.947175 299.462624,202.145317 C247.638546,164.315055 216.981091,177.735292 200.680719,136.146936 C200.042898,133.830438 190.905683,112.992483 210.313862,97.5681621 C229.722041,82.143841 250.399026,96.2015899 252.71017,96.2543592 C268.820113,100.094284 292.428242,101.24499 308.006668,89.9798837 C319.300071,81.8128728 322.423404,64.784437 317.85465,51.9706652 C300.157803,2.33995612 218.564171,31.2521997 251.81956,88.4228059 C240.221778,89.9500576 207.592792,79.1308176 195.751047,119.597252 C195.319715,121.070205 194.086846,87.0332133 189.850768,110.07353 C185.603984,133.178852 194.587772,148.27853 197.35931,153.489693 C201.478377,159.285143 201.698632,158.972351 206.265856,164.43436 C208.218322,166.768447 151.104309,180.928219 126.435026,249.323399 C83.9159407,367.20704 190.004488,489.622726 315.695696,456.898089 C361.397002,444.99975 405.191728,410.061095 419.889136,360.898427 C431.722468,321.314541 437.733584,324.370574 470.031478,298.631374 C518.724575,259.826027 477.063566,207.213468 481.741682,203.340657 C488.802066,197.494732 548.519367,240.788532 523.4264,320.217857 C520.202881,330.422988 495.476241,469.536727 399.65936,529.501814 C209.514612,648.501259 -41.744677,475.838457 21.3858053,228.572048 C29.4006264,197.177351 73.1747038,86.0458914 204.190262,45.2758423 C215.537964,41.7448853 216.415923,42.5211299 216.199493,43.4679189 C215.92188,44.6831432 213.509021,55.2370107 214.96209,58.9951053 C220.882198,38.7462104 259.149145,-10.3315678 311.709699,20.8941141 Z" id="Path" fill="#2D9447"></path>
            <path d="M251.81956,88.4228059 C218.564171,31.2521997 300.157803,2.33995612 317.85465,51.9706652 C322.423404,64.784437 319.300071,81.8128728 308.006668,89.9798837 C292.428242,101.24499 269.198262,94.6602945 253.088319,90.8203693 C252.83212,90.27891 252.72964,90.4578668 252.481854,89.9347621 C252.42526,89.8146927 252.481854,89.9347621 251.81956,88.4228059 Z" id="Path" fill="#012E1B"></path>
            <path d="M291.697119,156.021092 C279.476811,142.948062 263.20703,120.274837 268.356247,122.227302 C314.240333,139.622064 315.416554,134.334424 344.047361,137.072311 C353.227696,137.950271 346.84796,174.910985 369.997639,170.120447 C374.92813,169.099475 375.894039,184.02708 397.566941,187.573332 C430.564602,192.971865 429.96349,219.777159 447.849237,232.641405 C451.454377,235.233986 438.670431,234.367498 433.629047,229.238165 C432.97899,228.576637 430.631902,223.292055 429.945901,229.35747 C428.941754,238.236485 421.814834,251.02196 421.735298,243.864449 C421.140304,190.688252 376.096053,194.910467 374.981779,194.773572 L291.697119,156.021092 Z" id="Path" fill="#832621"></path>
            <path d="M321.159999,19.0571293 C325.270654,18.4659598 332.568118,21.9227338 346.412804,18.4575473 C361.312877,14.7292788 382.468792,6.03151543 394.143052,32.68309 L394.829054,35.051592 C386.782877,38.2032215 377.358579,33.7530074 376.950955,38.1244499 L380.716697,39.0498253 C430.10115,55.4473233 429.637697,56.6877851 439.13006,64.676604 C438.661254,64.8846222 438.733142,65.7396385 438.265101,65.9476567 C435.745939,67.0642253 438.382112,60.1216159 407.648944,50.1742134 C405.685006,49.5386871 405.865493,50.8923353 403.707303,50.6208409 C402.40413,50.4564147 402.755926,52.8317996 397.626593,51.597456 C391.987922,50.2407487 392.350424,47.2673112 386.837176,49.121121 C385.22121,49.6641098 376.1923,45.3699094 373.068967,46.7732679 C370.810593,47.7888864 371.011728,45.0907673 368.533863,45.6796425 C365.136742,46.486478 363.000731,39.2134867 357.875987,42.9876415 C357.32688,43.3929712 357.460715,40.593902 349.412244,41.9154297 C343.111279,42.9501676 345.238877,38.9320502 344.850373,39.1125367 C342.314385,40.2902871 343.382773,41.4206216 340.989799,42.605255 C338.647299,43.7646509 336.270384,40.8103327 333.317596,41.4198568 C330.536881,41.9934366 330.386221,41.8519536 327.275889,38.8356888 C330.12008,31.5749339 327.340895,26.7851605 321.159999,19.0571293 Z" id="Path" fill="#2D9447"></path>
            <path d="M292.815982,155.509459 C342.335034,147.10078 337.855759,177.089824 374.55798,193.598979 C379.028078,195.610332 362.772063,199.548148 353.966467,198.236562 C326.967686,194.214621 304.373997,168.678085 291.697119,156.021092 L292.815982,155.509459 Z" id="Path" fill="#D3483D"></path>
            <path d="M252.716639,61.8240007 C257.810792,28.0745678 289.327852,29.2890274 303.091472,45.5205697 C306.786855,49.8790111 301.763062,47.3598488 301.289667,47.1686555 C291.414153,43.1696575 279.445456,48.8404493 276.46437,61.7681722 C271.533879,83.149696 291.854662,91.7939253 279.802605,90.2727918 C254.247715,87.0462145 252.584333,80.356745 252.716639,61.8240007 Z" id="Path" fill="#FEFEFE"></path>
            <path d="M361.62261,135.675071 C369.818682,134.281655 369.639725,134.183764 377.730259,132.426315 C381.26504,131.658483 376.654223,149.234496 371.218217,157.975852 C362.9862,171.215602 360.556516,156.636734 359.160805,146.759691 C357.820923,137.2788 358.26755,136.412312 361.62261,135.675071 Z" id="Path" fill-opacity="0.97" fill="#FEFEFE"></path>
            <path d="M419.002764,121.910686 C424.706441,122.044522 424.673555,121.997106 425.16301,122.055228 C436.294281,123.379051 422.658379,146.817049 417.334794,150.216465 C415.518458,151.376626 419.782067,148.190581 412.171811,123.778262 C412.002796,123.237568 412.128219,122.693049 419.002764,121.910686 Z" id="Path" fill="#F6F7F7"></path>
            <path d="M407.20461,86.9942099 C406.064334,87.0095054 406.213465,86.9643837 405.236849,86.3219744 C397.459108,81.19876 390.40943,83.6605644 387.059725,79.3074764 C381.063139,71.5136747 401.579705,62.3264565 407.20461,86.9942099 Z" id="Path" fill="#012818"></path>
            <path d="M321.159999,19.0571293 C327.340895,26.7851605 330.12008,31.5749339 327.275889,38.8356888 C324.558651,35.2091352 321.841412,31.5825816 319.124174,27.9567928 C315.73317,24.0113288 315.737759,24.2025221 311.709699,20.8941141 C312.266454,19.9962706 311.433616,18.6357394 311.989606,17.7378959 C312.380405,17.1077229 312.536419,17.966563 321.159999,19.0571293 Z" id="Path" fill="#063220"></path>
            <path d="M380.716697,39.0498253 C381.274982,38.5963149 381.630601,36.688971 395.274152,42.0745025 C408.519255,47.3154919 442.392581,55.1819471 447.283305,74.8457907 C448.283628,78.8669671 449.620451,78.938091 447.764347,82.5348185 C445.196239,72.7143683 445.425671,72.5269989 439.13006,64.676604 C429.637697,56.6877851 430.10115,55.4473233 380.716697,39.0498253 Z" id="Path" fill-opacity="0.97" fill="#001410"></path>
            <path d="M432.763324,69.2698307 C433.723114,69.4862614 439.915482,70.8819722 433.287959,81.5505556 C428.333759,89.524079 423.545515,72.513233 432.763324,69.2698307 Z" id="Path" fill="#002518"></path>
            <path d="M294.783743,60.3074558 C294.949699,59.632926 296.623787,52.8570371 302.07203,55.5834529 C308.938927,59.0203428 297.419916,72.9728616 294.783743,60.3074558 Z" id="Path" fill="#FEFEFE"></path>
            <path d="M394.829054,35.051592 C395.723073,40.1480393 395.915031,39.9904961 395.971624,40.4264167 C396.048867,41.0175862 395.196909,41.4825682 395.274152,42.0745025 C381.630601,36.688971 381.274982,38.5963149 380.716697,39.0498253 L376.950955,38.1244499 C377.358579,33.7530074 386.782877,38.2032215 394.829054,35.051592 Z" id="Path" fill="#063220"></path>
            <path d="M369.990756,36.0113821 C369.511243,35.8270718 357.912696,31.3692099 365.442651,31.4747486 C369.096736,31.5259884 368.412264,32.7916877 369.990756,36.0113821 Z" id="Path" fill="#2D9447"></path>
            <path d="M141.383279,548.180691 L143.044366,547.262138 C143.547586,547.960158 144.050042,548.660201 144.552498,549.360244 L142.906707,549.944962 C142.398897,549.356197 141.891088,548.769456 141.383279,548.180691 Z" id="Path" fill-opacity="0.27" fill="#616B64"></path>
            <path d="M523.616054,351.665323 C523.06071,352.943259 522.502682,354.220429 521.947338,355.498365 C522.502682,354.220429 523.06071,352.943259 523.616054,351.665323 Z" id="Path" fill-opacity="0.46" fill="#495A50"></path>
            <path d="M498.741419,436.500828 C497.907061,437.394228 497.075385,438.28894 496.24371,439.183652 C497.075385,438.28894 497.907061,437.394228 498.741419,436.500828 Z" id="Path" fill-opacity="0.33" fill="#0B180F"></path>
            <path d="M310.063143,575.857765 L307.380319,578.540589 C308.273993,577.644743 309.168568,576.751254 310.063143,575.857765 Z" id="Path" fill-opacity="0.44" fill="#35473D"></path>
            <path d="M251.81956,88.4228059 C255.756286,94.0899402 258.295366,97.1425882 259.436801,97.5807499 C260.068129,97.823097 250.862492,99.8245822 240.363543,104.540327 C223.120543,112.285254 207.2783,148.506514 199.715697,133.447083 C199.211775,132.443623 199.211775,132.076118 198.854452,131.279263 C192.997729,118.218357 194.362694,100.084662 202.949348,76.8781786 L251.81956,88.4228059 Z" id="Path-2" fill="#2D9447"></path>
        </g>
    </g>
</svg>